<?xml version="1.0"?><svg xmlns="http://www.w3.org/2000/svg"  viewBox="0 0 128 128" width="128px" height="128px">    <path d="M 64 13 C 47.5 13 34 26.5 34 43 C 34 48.3 35.399609 53.499609 38.099609 58.099609 C 38.099609 58.699609 38 59.4 38 60 C 38 74.3 49.7 86 64 86 C 72.8 86 80.499219 81.6 85.199219 75 C 93.399219 74.9 100 68.2 100 60 C 100 58.2 99.699609 56.500391 99.099609 54.900391 C 102.69961 52.200391 105 47.9 105 43 C 105 34.7 98.3 28 90 28 C 84.8 19 75.1 13 64 13 z M 82.023438 42.603516 C 82.677344 42.624609 83.337891 42.850781 83.900391 43.300781 C 85.100391 44.200781 85.3 45.899219 84.5 47.199219 C 83.9 48.199219 83.299609 49.099609 82.599609 50.099609 C 82.199609 50.699609 82.000781 51.399609 82.300781 52.099609 C 83.500781 54.799609 84.100391 57.899609 83.900391 61.099609 C 83.400391 71.299609 75.000391 79.5 64.900391 80 C 53.500391 80.5 44 71.3 44 60 C 44 58.9 44.9 58.099609 46 58.099609 L 53.099609 58.099609 C 56.199609 58.099609 59.500781 57.699219 62.800781 56.699219 C 69.400781 54.699219 74.799609 50.7 78.099609 46 C 78.499609 45.4 78.900781 44.799609 79.300781 44.099609 C 79.863281 43.099609 80.933594 42.568359 82.023438 42.603516 z M 64 91 C 47.6 91 32.400781 99.899609 24.300781 114.09961 C 23.500781 115.49961 24.000391 117.39922 25.400391 118.19922 C 26.800391 118.99922 28.7 118.49961 29.5 117.09961 C 36.6 104.69961 49.8 97 64 97 C 78.2 97 91.4 104.69961 98.5 117.09961 C 99.1 118.09961 100.09961 118.59961 101.09961 118.59961 C 101.59961 118.59961 102.09961 118.49922 102.59961 118.19922 C 103.99961 117.39922 104.49922 115.49961 103.69922 114.09961 C 95.599219 99.899609 80.4 91 64 91 z"/></svg>